<?xml version="1.0" encoding="UTF-8"?>
<svg id="Layer_2" data-name="Layer 2" xmlns="http://www.w3.org/2000/svg" viewBox="0 0 823.32 295.98">
  <defs>
    <style>
      .cls-1 {
        fill: #24ab94;
      }
    </style>
  </defs>
  <g id="Layer_1-2" data-name="Layer 1">
    <g>
      <g>
        <g>
          <polygon class="cls-1" points="44.2 27.62 44.2 0 16.58 0 16.58 4.31 31.91 4.31 31.91 27.62 44.2 27.62"/>
          <polygon class="cls-1" points="0 12.91 0 12.91 0 36.22 15.34 36.22 15.34 36.22 27.63 36.22 27.63 8.6 0 8.6 0 12.91"/>
          <polygon class="cls-1" points="48.49 8.6 48.49 31.91 33.15 31.91 33.15 36.22 60.78 36.22 60.78 8.6 48.49 8.6"/>
        </g>
        <g>
          <polygon class="cls-1" points="16.58 49.65 16.58 77.28 44.2 77.28 44.2 72.97 28.86 72.97 28.86 49.65 16.58 49.65"/>
          <polygon class="cls-1" points="60.78 64.37 60.78 64.37 60.78 41.06 45.44 41.06 45.44 41.05 33.15 41.05 33.15 68.68 60.78 68.68 60.78 64.37"/>
          <polygon class="cls-1" points="12.29 68.68 12.29 45.36 27.63 45.36 27.63 41.05 0 41.05 0 68.68 12.29 68.68"/>
        </g>
        <g>
          <g>
            <polygon class="cls-1" points="111.04 27.62 111.04 0 83.42 0 83.42 4.31 98.76 4.31 98.76 27.62 111.04 27.62"/>
            <polygon class="cls-1" points="66.84 12.91 66.84 12.91 66.84 36.22 82.18 36.22 82.18 36.22 94.47 36.22 94.47 8.6 66.84 8.6 66.84 12.91"/>
            <polygon class="cls-1" points="115.33 8.6 115.33 31.91 99.99 31.91 99.99 36.22 127.62 36.22 127.62 8.6 115.33 8.6"/>
          </g>
          <g>
            <polygon class="cls-1" points="83.42 49.65 83.42 77.28 111.04 77.28 111.04 72.97 95.71 72.97 95.71 49.65 83.42 49.65"/>
            <polygon class="cls-1" points="127.62 64.37 127.62 64.37 127.62 41.06 112.28 41.06 112.28 41.05 99.99 41.05 99.99 68.68 127.62 68.68 127.62 64.37"/>
            <polygon class="cls-1" points="79.13 68.68 79.13 45.36 94.47 45.36 94.47 41.05 66.84 41.05 66.84 68.68 79.13 68.68"/>
          </g>
        </g>
        <g>
          <polygon class="cls-1" points="77.35 100.51 77.35 72.89 49.72 72.89 49.72 77.2 65.06 77.2 65.06 100.51 77.35 100.51"/>
          <polygon class="cls-1" points="33.15 85.79 33.15 85.79 33.15 109.11 48.49 109.11 48.49 109.11 60.78 109.11 60.78 81.48 33.15 81.48 33.15 85.79"/>
          <polygon class="cls-1" points="81.64 81.48 81.64 104.8 66.3 104.8 66.3 109.11 93.93 109.11 93.93 81.48 81.64 81.48"/>
        </g>
        <g>
          <polygon class="cls-1" points="49.72 122.54 49.72 150.17 77.35 150.17 77.35 145.86 62.01 145.86 62.01 122.54 49.72 122.54"/>
          <polygon class="cls-1" points="93.93 137.26 93.92 137.26 93.92 113.94 78.58 113.94 78.58 113.94 66.3 113.94 66.3 141.57 93.93 141.57 93.93 137.26"/>
          <polygon class="cls-1" points="45.44 141.57 45.44 118.25 60.78 118.25 60.78 113.94 33.15 113.94 33.15 141.57 45.44 141.57"/>
        </g>
        <g>
          <polygon class="cls-1" points="183.41 122.54 183.41 150.17 211.04 150.17 211.04 145.86 195.7 145.86 195.7 122.54 183.41 122.54"/>
          <polygon class="cls-1" points="227.61 137.26 227.61 137.26 227.61 113.94 212.27 113.94 212.27 113.94 199.98 113.94 199.98 141.57 227.61 141.57 227.61 137.26"/>
          <polygon class="cls-1" points="179.12 141.57 179.12 118.25 194.46 118.25 194.46 113.94 166.83 113.94 166.83 141.57 179.12 141.57"/>
        </g>
        <g>
          <polygon class="cls-1" points="211.04 100.51 211.04 72.89 183.41 72.89 183.41 77.2 198.75 77.2 198.75 100.51 211.04 100.51"/>
          <polygon class="cls-1" points="166.83 85.79 166.84 85.79 166.84 109.11 182.18 109.11 182.18 109.11 194.46 109.11 194.46 81.48 166.83 81.48 166.83 85.79"/>
          <polygon class="cls-1" points="215.32 81.48 215.32 104.8 199.98 104.8 199.98 109.11 227.61 109.11 227.61 81.48 215.32 81.48"/>
        </g>
        <g>
          <g>
            <polygon class="cls-1" points="116.57 122.54 116.57 150.17 144.19 150.17 144.19 145.86 128.85 145.86 128.85 122.54 116.57 122.54"/>
            <polygon class="cls-1" points="160.77 137.26 160.77 137.26 160.77 113.94 145.43 113.94 145.43 113.94 133.14 113.94 133.14 141.57 160.77 141.57 160.77 137.26"/>
            <polygon class="cls-1" points="112.28 141.57 112.28 118.25 127.62 118.25 127.62 113.94 99.99 113.94 99.99 141.57 112.28 141.57"/>
          </g>
          <g>
            <polygon class="cls-1" points="144.19 100.51 144.19 72.89 116.57 72.89 116.57 77.2 131.91 77.2 131.91 100.51 144.19 100.51"/>
            <polygon class="cls-1" points="99.99 85.79 99.99 85.79 99.99 109.11 115.33 109.11 115.33 109.11 127.62 109.11 127.62 81.48 99.99 81.48 99.99 85.79"/>
            <polygon class="cls-1" points="148.48 81.48 148.48 104.8 133.14 104.8 133.14 109.11 160.77 109.11 160.77 81.48 148.48 81.48"/>
          </g>
        </g>
        <g>
          <polygon class="cls-1" points="150.26 49.65 150.26 77.28 177.89 77.28 177.89 72.97 162.55 72.97 162.55 49.65 150.26 49.65"/>
          <polygon class="cls-1" points="194.46 64.37 194.46 64.37 194.46 41.06 179.12 41.06 179.12 41.05 166.83 41.05 166.83 68.68 194.46 68.68 194.46 64.37"/>
          <polygon class="cls-1" points="145.97 68.68 145.97 45.36 161.31 45.36 161.31 41.05 133.69 41.05 133.69 68.68 145.97 68.68"/>
        </g>
        <g>
          <polygon class="cls-1" points="177.89 27.62 177.89 0 150.26 0 150.26 4.31 165.6 4.31 165.6 27.62 177.89 27.62"/>
          <polygon class="cls-1" points="133.69 12.91 133.69 12.91 133.69 36.22 149.03 36.22 149.03 36.22 161.31 36.22 161.31 8.6 133.69 8.6 133.69 12.91"/>
          <polygon class="cls-1" points="182.18 8.6 182.18 31.91 166.83 31.91 166.83 36.22 194.46 36.22 194.46 8.6 182.18 8.6"/>
        </g>
      </g>
      <g>
        <g>
          <polygon class="cls-1" points="242.77 27.62 242.77 0 215.14 0 215.14 4.31 230.48 4.31 230.48 27.62 242.77 27.62"/>
          <polygon class="cls-1" points="198.57 12.91 198.57 12.91 198.57 36.22 213.91 36.22 213.91 36.22 226.2 36.22 226.2 8.6 198.57 8.6 198.57 12.91"/>
          <polygon class="cls-1" points="247.06 8.6 247.06 31.91 231.72 31.91 231.72 36.22 259.35 36.22 259.35 8.6 247.06 8.6"/>
        </g>
        <g>
          <polygon class="cls-1" points="215.14 49.65 215.14 77.28 242.77 77.28 242.77 72.97 227.43 72.97 227.43 49.65 215.14 49.65"/>
          <polygon class="cls-1" points="259.35 64.37 259.34 64.37 259.34 41.06 244 41.06 244 41.05 231.72 41.05 231.72 68.68 259.35 68.68 259.35 64.37"/>
          <polygon class="cls-1" points="210.85 68.68 210.85 45.36 226.2 45.36 226.2 41.05 198.57 41.05 198.57 68.68 210.85 68.68"/>
        </g>
        <g>
          <g>
            <polygon class="cls-1" points="309.61 27.62 309.61 0 281.99 0 281.99 4.31 297.33 4.31 297.33 27.62 309.61 27.62"/>
            <polygon class="cls-1" points="265.41 12.91 265.41 12.91 265.41 36.22 280.75 36.22 280.75 36.22 293.04 36.22 293.04 8.6 265.41 8.6 265.41 12.91"/>
            <polygon class="cls-1" points="313.9 8.6 313.9 31.91 298.56 31.91 298.56 36.22 326.19 36.22 326.19 8.6 313.9 8.6"/>
          </g>
          <g>
            <polygon class="cls-1" points="281.99 49.65 281.99 77.28 309.61 77.28 309.61 72.97 294.27 72.97 294.27 49.65 281.99 49.65"/>
            <polygon class="cls-1" points="326.19 64.37 326.19 64.37 326.19 41.06 310.85 41.06 310.85 41.05 298.56 41.05 298.56 68.68 326.19 68.68 326.19 64.37"/>
            <polygon class="cls-1" points="277.7 68.68 277.7 45.36 293.04 45.36 293.04 41.05 265.41 41.05 265.41 68.68 277.7 68.68"/>
          </g>
        </g>
        <g>
          <polygon class="cls-1" points="275.92 100.51 275.92 72.89 248.29 72.89 248.29 77.2 263.63 77.2 263.63 100.51 275.92 100.51"/>
          <polygon class="cls-1" points="231.72 85.79 231.72 85.79 231.72 109.11 247.06 109.11 247.06 109.11 259.35 109.11 259.35 81.48 231.72 81.48 231.72 85.79"/>
          <polygon class="cls-1" points="280.21 81.48 280.21 104.8 264.87 104.8 264.87 109.11 292.49 109.11 292.49 81.48 280.21 81.48"/>
        </g>
        <g>
          <polygon class="cls-1" points="248.29 122.54 248.29 150.17 275.92 150.17 275.92 145.86 260.58 145.86 260.58 122.54 248.29 122.54"/>
          <polygon class="cls-1" points="292.49 137.26 292.49 137.26 292.49 113.94 277.15 113.94 277.15 113.94 264.87 113.94 264.87 141.57 292.49 141.57 292.49 137.26"/>
          <polygon class="cls-1" points="244 141.57 244 118.25 259.35 118.25 259.35 113.94 231.72 113.94 231.72 141.57 244 141.57"/>
        </g>
        <g>
          <polygon class="cls-1" points="381.98 122.54 381.98 150.17 409.6 150.17 409.6 145.86 394.27 145.86 394.27 122.54 381.98 122.54"/>
          <polygon class="cls-1" points="426.18 137.26 426.18 137.26 426.18 113.94 410.84 113.94 410.84 113.94 398.55 113.94 398.55 141.57 426.18 141.57 426.18 137.26"/>
          <polygon class="cls-1" points="377.69 141.57 377.69 118.25 393.03 118.25 393.03 113.94 365.4 113.94 365.4 141.57 377.69 141.57"/>
        </g>
        <g>
          <polygon class="cls-1" points="409.6 100.51 409.6 72.89 381.98 72.89 381.98 77.2 397.32 77.2 397.32 100.51 409.6 100.51"/>
          <polygon class="cls-1" points="365.4 85.79 365.4 85.79 365.4 109.11 380.74 109.11 380.74 109.11 393.03 109.11 393.03 81.48 365.4 81.48 365.4 85.79"/>
          <polygon class="cls-1" points="413.89 81.48 413.89 104.8 398.55 104.8 398.55 109.11 426.18 109.11 426.18 81.48 413.89 81.48"/>
        </g>
        <g>
          <g>
            <polygon class="cls-1" points="315.14 122.54 315.14 150.17 342.76 150.17 342.76 145.86 327.42 145.86 327.42 122.54 315.14 122.54"/>
            <polygon class="cls-1" points="359.34 137.26 359.33 137.26 359.33 113.94 343.99 113.94 343.99 113.94 331.71 113.94 331.71 141.57 359.34 141.57 359.34 137.26"/>
            <polygon class="cls-1" points="310.85 141.57 310.85 118.25 326.19 118.25 326.19 113.94 298.56 113.94 298.56 141.57 310.85 141.57"/>
          </g>
          <g>
            <polygon class="cls-1" points="342.76 100.51 342.76 72.89 315.14 72.89 315.14 77.2 330.47 77.2 330.47 100.51 342.76 100.51"/>
            <polygon class="cls-1" points="298.56 85.79 298.56 85.79 298.56 109.11 313.9 109.11 313.9 109.11 326.19 109.11 326.19 81.48 298.56 81.48 298.56 85.79"/>
            <polygon class="cls-1" points="347.05 81.48 347.05 104.8 331.71 104.8 331.71 109.11 359.34 109.11 359.34 81.48 347.05 81.48"/>
          </g>
        </g>
        <g>
          <polygon class="cls-1" points="348.83 49.65 348.83 77.28 376.45 77.28 376.45 72.97 361.12 72.97 361.12 49.65 348.83 49.65"/>
          <polygon class="cls-1" points="393.03 64.37 393.03 64.37 393.03 41.06 377.69 41.06 377.69 41.05 365.4 41.05 365.4 68.68 393.03 68.68 393.03 64.37"/>
          <polygon class="cls-1" points="344.54 68.68 344.54 45.36 359.88 45.36 359.88 41.05 332.25 41.05 332.25 68.68 344.54 68.68"/>
        </g>
        <g>
          <polygon class="cls-1" points="376.45 27.62 376.45 0 348.83 0 348.83 4.31 364.17 4.31 364.17 27.62 376.45 27.62"/>
          <polygon class="cls-1" points="332.25 12.91 332.26 12.91 332.26 36.22 347.6 36.22 347.6 36.22 359.88 36.22 359.88 8.6 332.25 8.6 332.25 12.91"/>
          <polygon class="cls-1" points="380.74 8.6 380.74 31.91 365.4 31.91 365.4 36.22 393.03 36.22 393.03 8.6 380.74 8.6"/>
        </g>
      </g>
      <g>
        <g>
          <polygon class="cls-1" points="441.34 27.62 441.34 0 413.71 0 413.71 4.31 429.05 4.31 429.05 27.62 441.34 27.62"/>
          <polygon class="cls-1" points="397.14 12.91 397.14 12.91 397.14 36.22 412.48 36.22 412.48 36.22 424.76 36.22 424.76 8.6 397.14 8.6 397.14 12.91"/>
          <polygon class="cls-1" points="445.63 8.6 445.63 31.91 430.28 31.91 430.28 36.22 457.91 36.22 457.91 8.6 445.63 8.6"/>
        </g>
        <g>
          <polygon class="cls-1" points="413.71 49.65 413.71 77.28 441.34 77.28 441.34 72.97 426 72.97 426 49.65 413.71 49.65"/>
          <polygon class="cls-1" points="457.91 64.37 457.91 64.37 457.91 41.06 442.57 41.06 442.57 41.05 430.28 41.05 430.28 68.68 457.91 68.68 457.91 64.37"/>
          <polygon class="cls-1" points="409.42 68.68 409.42 45.36 424.76 45.36 424.76 41.05 397.14 41.05 397.14 68.68 409.42 68.68"/>
        </g>
        <g>
          <g>
            <polygon class="cls-1" points="508.18 27.62 508.18 0 480.56 0 480.56 4.31 495.89 4.31 495.89 27.62 508.18 27.62"/>
            <polygon class="cls-1" points="463.98 12.91 463.98 12.91 463.98 36.22 479.32 36.22 479.32 36.22 491.61 36.22 491.61 8.6 463.98 8.6 463.98 12.91"/>
            <polygon class="cls-1" points="512.47 8.6 512.47 31.91 497.13 31.91 497.13 36.22 524.76 36.22 524.76 8.6 512.47 8.6"/>
          </g>
          <g>
            <polygon class="cls-1" points="480.56 49.65 480.56 77.28 508.18 77.28 508.18 72.97 492.84 72.97 492.84 49.65 480.56 49.65"/>
            <polygon class="cls-1" points="524.76 64.37 524.75 64.37 524.75 41.06 509.41 41.06 509.41 41.05 497.13 41.05 497.13 68.68 524.76 68.68 524.76 64.37"/>
            <polygon class="cls-1" points="476.27 68.68 476.27 45.36 491.61 45.36 491.61 41.05 463.98 41.05 463.98 68.68 476.27 68.68"/>
          </g>
        </g>
        <g>
          <polygon class="cls-1" points="474.49 100.51 474.49 72.89 446.86 72.89 446.86 77.2 462.2 77.2 462.2 100.51 474.49 100.51"/>
          <polygon class="cls-1" points="430.28 85.79 430.29 85.79 430.29 109.11 445.63 109.11 445.63 109.11 457.91 109.11 457.91 81.48 430.28 81.48 430.28 85.79"/>
          <polygon class="cls-1" points="478.78 81.48 478.78 104.8 463.43 104.8 463.43 109.11 491.06 109.11 491.06 81.48 478.78 81.48"/>
        </g>
        <g>
          <polygon class="cls-1" points="446.86 122.54 446.86 150.17 474.49 150.17 474.49 145.86 459.15 145.86 459.15 122.54 446.86 122.54"/>
          <polygon class="cls-1" points="491.06 137.26 491.06 137.26 491.06 113.94 475.72 113.94 475.72 113.94 463.43 113.94 463.43 141.57 491.06 141.57 491.06 137.26"/>
          <polygon class="cls-1" points="442.57 141.57 442.57 118.25 457.91 118.25 457.91 113.94 430.28 113.94 430.28 141.57 442.57 141.57"/>
        </g>
        <g>
          <polygon class="cls-1" points="580.55 122.54 580.55 150.17 608.17 150.17 608.17 145.86 592.83 145.86 592.83 122.54 580.55 122.54"/>
          <polygon class="cls-1" points="624.75 137.26 624.75 137.26 624.75 113.94 609.41 113.94 609.41 113.94 597.12 113.94 597.12 141.57 624.75 141.57 624.75 137.26"/>
          <polygon class="cls-1" points="576.26 141.57 576.26 118.25 591.6 118.25 591.6 113.94 563.97 113.94 563.97 141.57 576.26 141.57"/>
        </g>
        <g>
          <polygon class="cls-1" points="608.17 100.51 608.17 72.89 580.55 72.89 580.55 77.2 595.88 77.2 595.88 100.51 608.17 100.51"/>
          <polygon class="cls-1" points="563.97 85.79 563.97 85.79 563.97 109.11 579.31 109.11 579.31 109.11 591.6 109.11 591.6 81.48 563.97 81.48 563.97 85.79"/>
          <polygon class="cls-1" points="612.46 81.48 612.46 104.8 597.12 104.8 597.12 109.11 624.75 109.11 624.75 81.48 612.46 81.48"/>
        </g>
        <g>
          <g>
            <polygon class="cls-1" points="513.7 122.54 513.7 150.17 541.33 150.17 541.33 145.86 525.99 145.86 525.99 122.54 513.7 122.54"/>
            <polygon class="cls-1" points="557.9 137.26 557.9 137.26 557.9 113.94 542.56 113.94 542.56 113.94 530.28 113.94 530.28 141.57 557.9 141.57 557.9 137.26"/>
            <polygon class="cls-1" points="509.41 141.57 509.41 118.25 524.76 118.25 524.76 113.94 497.13 113.94 497.13 141.57 509.41 141.57"/>
          </g>
          <g>
            <polygon class="cls-1" points="541.33 100.51 541.33 72.89 513.7 72.89 513.7 77.2 529.04 77.2 529.04 100.51 541.33 100.51"/>
            <polygon class="cls-1" points="497.13 85.79 497.13 85.79 497.13 109.11 512.47 109.11 512.47 109.11 524.76 109.11 524.76 81.48 497.13 81.48 497.13 85.79"/>
            <polygon class="cls-1" points="545.62 81.48 545.62 104.8 530.28 104.8 530.28 109.11 557.9 109.11 557.9 81.48 545.62 81.48"/>
          </g>
        </g>
        <g>
          <polygon class="cls-1" points="547.4 49.65 547.4 77.28 575.02 77.28 575.02 72.97 559.68 72.97 559.68 49.65 547.4 49.65"/>
          <polygon class="cls-1" points="591.6 64.37 591.6 64.37 591.6 41.06 576.26 41.06 576.26 41.05 563.97 41.05 563.97 68.68 591.6 68.68 591.6 64.37"/>
          <polygon class="cls-1" points="543.11 68.68 543.11 45.36 558.45 45.36 558.45 41.05 530.82 41.05 530.82 68.68 543.11 68.68"/>
        </g>
        <g>
          <polygon class="cls-1" points="575.02 27.62 575.02 0 547.4 0 547.4 4.31 562.74 4.31 562.74 27.62 575.02 27.62"/>
          <polygon class="cls-1" points="530.82 12.91 530.82 12.91 530.82 36.22 546.16 36.22 546.16 36.22 558.45 36.22 558.45 8.6 530.82 8.6 530.82 12.91"/>
          <polygon class="cls-1" points="579.31 8.6 579.31 31.91 563.97 31.91 563.97 36.22 591.6 36.22 591.6 8.6 579.31 8.6"/>
        </g>
      </g>
      <g>
        <g>
          <polygon class="cls-1" points="639.9 27.62 639.9 0 612.28 0 612.28 4.31 627.62 4.31 627.62 27.62 639.9 27.62"/>
          <polygon class="cls-1" points="595.7 12.91 595.71 12.91 595.71 36.22 611.05 36.22 611.05 36.22 623.33 36.22 623.33 8.6 595.7 8.6 595.7 12.91"/>
          <polygon class="cls-1" points="644.19 8.6 644.19 31.91 628.85 31.91 628.85 36.22 656.48 36.22 656.48 8.6 644.19 8.6"/>
        </g>
        <g>
          <polygon class="cls-1" points="612.28 49.65 612.28 77.28 639.9 77.28 639.9 72.97 624.57 72.97 624.57 49.65 612.28 49.65"/>
          <polygon class="cls-1" points="656.48 64.37 656.48 64.37 656.48 41.06 641.14 41.06 641.14 41.05 628.85 41.05 628.85 68.68 656.48 68.68 656.48 64.37"/>
          <polygon class="cls-1" points="607.99 68.68 607.99 45.36 623.33 45.36 623.33 41.05 595.7 41.05 595.7 68.68 607.99 68.68"/>
        </g>
        <g>
          <g>
            <polygon class="cls-1" points="706.75 27.62 706.75 0 679.12 0 679.12 4.31 694.46 4.31 694.46 27.62 706.75 27.62"/>
            <polygon class="cls-1" points="662.55 12.91 662.55 12.91 662.55 36.22 677.89 36.22 677.89 36.22 690.18 36.22 690.18 8.6 662.55 8.6 662.55 12.91"/>
            <polygon class="cls-1" points="711.04 8.6 711.04 31.91 695.7 31.91 695.7 36.22 723.32 36.22 723.32 8.6 711.04 8.6"/>
          </g>
          <g>
            <polygon class="cls-1" points="679.12 49.65 679.12 77.28 706.75 77.28 706.75 72.97 691.41 72.97 691.41 49.65 679.12 49.65"/>
            <polygon class="cls-1" points="723.32 64.37 723.32 64.37 723.32 41.06 707.98 41.06 707.98 41.05 695.7 41.05 695.7 68.68 723.32 68.68 723.32 64.37"/>
            <polygon class="cls-1" points="674.83 68.68 674.83 45.36 690.18 45.36 690.18 41.05 662.55 41.05 662.55 68.68 674.83 68.68"/>
          </g>
        </g>
        <g>
          <polygon class="cls-1" points="673.05 100.51 673.05 72.89 645.43 72.89 645.43 77.2 660.77 77.2 660.77 100.51 673.05 100.51"/>
          <polygon class="cls-1" points="628.85 85.79 628.85 85.79 628.85 109.11 644.19 109.11 644.19 109.11 656.48 109.11 656.48 81.48 628.85 81.48 628.85 85.79"/>
          <polygon class="cls-1" points="677.34 81.48 677.34 104.8 662 104.8 662 109.11 689.63 109.11 689.63 81.48 677.34 81.48"/>
        </g>
        <g>
          <polygon class="cls-1" points="645.43 122.54 645.43 150.17 673.05 150.17 673.05 145.86 657.72 145.86 657.72 122.54 645.43 122.54"/>
          <polygon class="cls-1" points="689.63 137.26 689.63 137.26 689.63 113.94 674.29 113.94 674.29 113.94 662 113.94 662 141.57 689.63 141.57 689.63 137.26"/>
          <polygon class="cls-1" points="641.14 141.57 641.14 118.25 656.48 118.25 656.48 113.94 628.85 113.94 628.85 141.57 641.14 141.57"/>
        </g>
        <g>
          <polygon class="cls-1" points="779.11 122.54 779.11 150.17 806.74 150.17 806.74 145.86 791.4 145.86 791.4 122.54 779.11 122.54"/>
          <polygon class="cls-1" points="823.32 137.26 823.31 137.26 823.31 113.94 807.97 113.94 807.97 113.94 795.69 113.94 795.69 141.57 823.32 141.57 823.32 137.26"/>
          <polygon class="cls-1" points="774.82 141.57 774.82 118.25 790.17 118.25 790.17 113.94 762.54 113.94 762.54 141.57 774.82 141.57"/>
        </g>
        <g>
          <polygon class="cls-1" points="806.74 100.51 806.74 72.89 779.11 72.89 779.11 77.2 794.45 77.2 794.45 100.51 806.74 100.51"/>
          <polygon class="cls-1" points="762.54 85.79 762.54 85.79 762.54 109.11 777.88 109.11 777.88 109.11 790.17 109.11 790.17 81.48 762.54 81.48 762.54 85.79"/>
          <polygon class="cls-1" points="811.03 81.48 811.03 104.8 795.69 104.8 795.69 109.11 823.32 109.11 823.32 81.48 811.03 81.48"/>
        </g>
        <g>
          <g>
            <polygon class="cls-1" points="712.27 122.54 712.27 150.17 739.9 150.17 739.9 145.86 724.56 145.86 724.56 122.54 712.27 122.54"/>
            <polygon class="cls-1" points="756.47 137.26 756.47 137.26 756.47 113.94 741.13 113.94 741.13 113.94 728.84 113.94 728.84 141.57 756.47 141.57 756.47 137.26"/>
            <polygon class="cls-1" points="707.98 141.57 707.98 118.25 723.32 118.25 723.32 113.94 695.7 113.94 695.7 141.57 707.98 141.57"/>
          </g>
          <g>
            <polygon class="cls-1" points="739.9 100.51 739.9 72.89 712.27 72.89 712.27 77.2 727.61 77.2 727.61 100.51 739.9 100.51"/>
            <polygon class="cls-1" points="695.7 85.79 695.7 85.79 695.7 109.11 711.04 109.11 711.04 109.11 723.32 109.11 723.32 81.48 695.7 81.48 695.7 85.79"/>
            <polygon class="cls-1" points="744.19 81.48 744.19 104.8 728.84 104.8 728.84 109.11 756.47 109.11 756.47 81.48 744.19 81.48"/>
          </g>
        </g>
        <g>
          <polygon class="cls-1" points="745.97 49.65 745.97 77.28 773.59 77.28 773.59 72.97 758.25 72.97 758.25 49.65 745.97 49.65"/>
          <polygon class="cls-1" points="790.17 64.37 790.16 64.37 790.16 41.06 774.82 41.06 774.82 41.05 762.54 41.05 762.54 68.68 790.17 68.68 790.17 64.37"/>
          <polygon class="cls-1" points="741.68 68.68 741.68 45.36 757.02 45.36 757.02 41.05 729.39 41.05 729.39 68.68 741.68 68.68"/>
        </g>
        <g>
          <polygon class="cls-1" points="773.59 27.62 773.59 0 745.97 0 745.97 4.31 761.3 4.31 761.3 27.62 773.59 27.62"/>
          <polygon class="cls-1" points="729.39 12.91 729.39 12.91 729.39 36.22 744.73 36.22 744.73 36.22 757.02 36.22 757.02 8.6 729.39 8.6 729.39 12.91"/>
          <polygon class="cls-1" points="777.88 8.6 777.88 31.91 762.54 31.91 762.54 36.22 790.17 36.22 790.17 8.6 777.88 8.6"/>
        </g>
      </g>
      <g>
        <g>
          <polygon class="cls-1" points="44.2 173.44 44.2 145.81 16.58 145.81 16.58 150.12 31.91 150.12 31.91 173.44 44.2 173.44"/>
          <polygon class="cls-1" points="0 158.72 0 158.72 0 182.03 15.34 182.03 15.34 182.04 27.63 182.04 27.63 154.41 0 154.41 0 158.72"/>
          <polygon class="cls-1" points="48.49 154.41 48.49 177.73 33.15 177.73 33.15 182.04 60.78 182.04 60.78 154.41 48.49 154.41"/>
        </g>
        <g>
          <polygon class="cls-1" points="16.58 195.47 16.58 223.09 44.2 223.09 44.2 218.78 28.86 218.78 28.86 195.47 16.58 195.47"/>
          <polygon class="cls-1" points="60.78 210.18 60.78 210.18 60.78 186.87 45.44 186.87 45.44 186.87 33.15 186.87 33.15 214.49 60.78 214.49 60.78 210.18"/>
          <polygon class="cls-1" points="12.29 214.49 12.29 191.18 27.63 191.18 27.63 186.87 0 186.87 0 214.49 12.29 214.49"/>
        </g>
        <g>
          <g>
            <polygon class="cls-1" points="111.04 173.44 111.04 145.81 83.42 145.81 83.42 150.12 98.76 150.12 98.76 173.44 111.04 173.44"/>
            <polygon class="cls-1" points="66.84 158.72 66.84 158.72 66.84 182.03 82.18 182.03 82.18 182.04 94.47 182.04 94.47 154.41 66.84 154.41 66.84 158.72"/>
            <polygon class="cls-1" points="115.33 154.41 115.33 177.73 99.99 177.73 99.99 182.04 127.62 182.04 127.62 154.41 115.33 154.41"/>
          </g>
          <g>
            <polygon class="cls-1" points="83.42 195.47 83.42 223.09 111.04 223.09 111.04 218.78 95.71 218.78 95.71 195.47 83.42 195.47"/>
            <polygon class="cls-1" points="127.62 210.18 127.62 210.18 127.62 186.87 112.28 186.87 112.28 186.87 99.99 186.87 99.99 214.49 127.62 214.49 127.62 210.18"/>
            <polygon class="cls-1" points="79.13 214.49 79.13 191.18 94.47 191.18 94.47 186.87 66.84 186.87 66.84 214.49 79.13 214.49"/>
          </g>
        </g>
        <g>
          <polygon class="cls-1" points="77.35 246.32 77.35 218.7 49.72 218.7 49.72 223.01 65.06 223.01 65.06 246.32 77.35 246.32"/>
          <polygon class="cls-1" points="33.15 231.61 33.15 231.61 33.15 254.92 48.49 254.92 48.49 254.92 60.78 254.92 60.78 227.3 33.15 227.3 33.15 231.61"/>
          <polygon class="cls-1" points="81.64 227.3 81.64 250.61 66.3 250.61 66.3 254.92 93.93 254.92 93.93 227.3 81.64 227.3"/>
        </g>
        <g>
          <polygon class="cls-1" points="49.72 268.35 49.72 295.98 77.35 295.98 77.35 291.67 62.01 291.67 62.01 268.35 49.72 268.35"/>
          <polygon class="cls-1" points="93.93 283.07 93.92 283.07 93.92 259.76 78.58 259.76 78.58 259.75 66.3 259.75 66.3 287.38 93.93 287.38 93.93 283.07"/>
          <polygon class="cls-1" points="45.44 287.38 45.44 264.06 60.78 264.06 60.78 259.75 33.15 259.75 33.15 287.38 45.44 287.38"/>
        </g>
        <g>
          <polygon class="cls-1" points="183.41 268.35 183.41 295.98 211.04 295.98 211.04 291.67 195.7 291.67 195.7 268.35 183.41 268.35"/>
          <polygon class="cls-1" points="227.61 283.07 227.61 283.07 227.61 259.76 212.27 259.76 212.27 259.75 199.98 259.75 199.98 287.38 227.61 287.38 227.61 283.07"/>
          <polygon class="cls-1" points="179.12 287.38 179.12 264.06 194.46 264.06 194.46 259.75 166.83 259.75 166.83 287.38 179.12 287.38"/>
        </g>
        <g>
          <polygon class="cls-1" points="211.04 246.32 211.04 218.7 183.41 218.7 183.41 223.01 198.75 223.01 198.75 246.32 211.04 246.32"/>
          <polygon class="cls-1" points="166.83 231.61 166.84 231.61 166.84 254.92 182.18 254.92 182.18 254.92 194.46 254.92 194.46 227.3 166.83 227.3 166.83 231.61"/>
          <polygon class="cls-1" points="215.32 227.3 215.32 250.61 199.98 250.61 199.98 254.92 227.61 254.92 227.61 227.3 215.32 227.3"/>
        </g>
        <g>
          <g>
            <polygon class="cls-1" points="116.57 268.35 116.57 295.98 144.19 295.98 144.19 291.67 128.85 291.67 128.85 268.35 116.57 268.35"/>
            <polygon class="cls-1" points="160.77 283.07 160.77 283.07 160.77 259.76 145.43 259.76 145.43 259.75 133.14 259.75 133.14 287.38 160.77 287.38 160.77 283.07"/>
            <polygon class="cls-1" points="112.28 287.38 112.28 264.06 127.62 264.06 127.62 259.75 99.99 259.75 99.99 287.38 112.28 287.38"/>
          </g>
          <g>
            <polygon class="cls-1" points="144.19 246.32 144.19 218.7 116.57 218.7 116.57 223.01 131.91 223.01 131.91 246.32 144.19 246.32"/>
            <polygon class="cls-1" points="99.99 231.61 99.99 231.61 99.99 254.92 115.33 254.92 115.33 254.92 127.62 254.92 127.62 227.3 99.99 227.3 99.99 231.61"/>
            <polygon class="cls-1" points="148.48 227.3 148.48 250.61 133.14 250.61 133.14 254.92 160.77 254.92 160.77 227.3 148.48 227.3"/>
          </g>
        </g>
        <g>
          <polygon class="cls-1" points="150.26 195.47 150.26 223.09 177.89 223.09 177.89 218.78 162.55 218.78 162.55 195.47 150.26 195.47"/>
          <polygon class="cls-1" points="194.46 210.18 194.46 210.18 194.46 186.87 179.12 186.87 179.12 186.87 166.83 186.87 166.83 214.49 194.46 214.49 194.46 210.18"/>
          <polygon class="cls-1" points="145.97 214.49 145.97 191.18 161.31 191.18 161.31 186.87 133.69 186.87 133.69 214.49 145.97 214.49"/>
        </g>
        <g>
          <polygon class="cls-1" points="177.89 173.44 177.89 145.81 150.26 145.81 150.26 150.12 165.6 150.12 165.6 173.44 177.89 173.44"/>
          <polygon class="cls-1" points="133.69 158.72 133.69 158.72 133.69 182.03 149.03 182.03 149.03 182.04 161.31 182.04 161.31 154.41 133.69 154.41 133.69 158.72"/>
          <polygon class="cls-1" points="182.18 154.41 182.18 177.73 166.83 177.73 166.83 182.04 194.46 182.04 194.46 154.41 182.18 154.41"/>
        </g>
      </g>
      <g>
        <g>
          <polygon class="cls-1" points="242.77 173.44 242.77 145.81 215.14 145.81 215.14 150.12 230.48 150.12 230.48 173.44 242.77 173.44"/>
          <polygon class="cls-1" points="198.57 158.72 198.57 158.72 198.57 182.03 213.91 182.03 213.91 182.04 226.2 182.04 226.2 154.41 198.57 154.41 198.57 158.72"/>
          <polygon class="cls-1" points="247.06 154.41 247.06 177.73 231.72 177.73 231.72 182.04 259.35 182.04 259.35 154.41 247.06 154.41"/>
        </g>
        <g>
          <polygon class="cls-1" points="215.14 195.47 215.14 223.09 242.77 223.09 242.77 218.78 227.43 218.78 227.43 195.47 215.14 195.47"/>
          <polygon class="cls-1" points="259.35 210.18 259.34 210.18 259.34 186.87 244 186.87 244 186.87 231.72 186.87 231.72 214.49 259.35 214.49 259.35 210.18"/>
          <polygon class="cls-1" points="210.85 214.49 210.85 191.18 226.2 191.18 226.2 186.87 198.57 186.87 198.57 214.49 210.85 214.49"/>
        </g>
        <g>
          <g>
            <polygon class="cls-1" points="309.61 173.44 309.61 145.81 281.99 145.81 281.99 150.12 297.33 150.12 297.33 173.44 309.61 173.44"/>
            <polygon class="cls-1" points="265.41 158.72 265.41 158.72 265.41 182.03 280.75 182.03 280.75 182.04 293.04 182.04 293.04 154.41 265.41 154.41 265.41 158.72"/>
            <polygon class="cls-1" points="313.9 154.41 313.9 177.73 298.56 177.73 298.56 182.04 326.19 182.04 326.19 154.41 313.9 154.41"/>
          </g>
          <g>
            <polygon class="cls-1" points="281.99 195.47 281.99 223.09 309.61 223.09 309.61 218.78 294.27 218.78 294.27 195.47 281.99 195.47"/>
            <polygon class="cls-1" points="326.19 210.18 326.19 210.18 326.19 186.87 310.85 186.87 310.85 186.87 298.56 186.87 298.56 214.49 326.19 214.49 326.19 210.18"/>
            <polygon class="cls-1" points="277.7 214.49 277.7 191.18 293.04 191.18 293.04 186.87 265.41 186.87 265.41 214.49 277.7 214.49"/>
          </g>
        </g>
        <g>
          <polygon class="cls-1" points="275.92 246.32 275.92 218.7 248.29 218.7 248.29 223.01 263.63 223.01 263.63 246.32 275.92 246.32"/>
          <polygon class="cls-1" points="231.72 231.61 231.72 231.61 231.72 254.92 247.06 254.92 247.06 254.92 259.35 254.92 259.35 227.3 231.72 227.3 231.72 231.61"/>
          <polygon class="cls-1" points="280.21 227.3 280.21 250.61 264.87 250.61 264.87 254.92 292.49 254.92 292.49 227.3 280.21 227.3"/>
        </g>
        <g>
          <polygon class="cls-1" points="248.29 268.35 248.29 295.98 275.92 295.98 275.92 291.67 260.58 291.67 260.58 268.35 248.29 268.35"/>
          <polygon class="cls-1" points="292.49 283.07 292.49 283.07 292.49 259.76 277.15 259.76 277.15 259.75 264.87 259.75 264.87 287.38 292.49 287.38 292.49 283.07"/>
          <polygon class="cls-1" points="244 287.38 244 264.06 259.35 264.06 259.35 259.75 231.72 259.75 231.72 287.38 244 287.38"/>
        </g>
        <g>
          <polygon class="cls-1" points="381.98 268.35 381.98 295.98 409.6 295.98 409.6 291.67 394.27 291.67 394.27 268.35 381.98 268.35"/>
          <polygon class="cls-1" points="426.18 283.07 426.18 283.07 426.18 259.76 410.84 259.76 410.84 259.75 398.55 259.75 398.55 287.38 426.18 287.38 426.18 283.07"/>
          <polygon class="cls-1" points="377.69 287.38 377.69 264.06 393.03 264.06 393.03 259.75 365.4 259.75 365.4 287.38 377.69 287.38"/>
        </g>
        <g>
          <polygon class="cls-1" points="409.6 246.32 409.6 218.7 381.98 218.7 381.98 223.01 397.32 223.01 397.32 246.32 409.6 246.32"/>
          <polygon class="cls-1" points="365.4 231.61 365.4 231.61 365.4 254.92 380.74 254.92 380.74 254.92 393.03 254.92 393.03 227.3 365.4 227.3 365.4 231.61"/>
          <polygon class="cls-1" points="413.89 227.3 413.89 250.61 398.55 250.61 398.55 254.92 426.18 254.92 426.18 227.3 413.89 227.3"/>
        </g>
        <g>
          <g>
            <polygon class="cls-1" points="315.14 268.35 315.14 295.98 342.76 295.98 342.76 291.67 327.42 291.67 327.42 268.35 315.14 268.35"/>
            <polygon class="cls-1" points="359.34 283.07 359.33 283.07 359.33 259.76 343.99 259.76 343.99 259.75 331.71 259.75 331.71 287.38 359.34 287.38 359.34 283.07"/>
            <polygon class="cls-1" points="310.85 287.38 310.85 264.06 326.19 264.06 326.19 259.75 298.56 259.75 298.56 287.38 310.85 287.38"/>
          </g>
          <g>
            <polygon class="cls-1" points="342.76 246.32 342.76 218.7 315.14 218.7 315.14 223.01 330.47 223.01 330.47 246.32 342.76 246.32"/>
            <polygon class="cls-1" points="298.56 231.61 298.56 231.61 298.56 254.92 313.9 254.92 313.9 254.92 326.19 254.92 326.19 227.3 298.56 227.3 298.56 231.61"/>
            <polygon class="cls-1" points="347.05 227.3 347.05 250.61 331.71 250.61 331.71 254.92 359.34 254.92 359.34 227.3 347.05 227.3"/>
          </g>
        </g>
        <g>
          <polygon class="cls-1" points="348.83 195.47 348.83 223.09 376.45 223.09 376.45 218.78 361.12 218.78 361.12 195.47 348.83 195.47"/>
          <polygon class="cls-1" points="393.03 210.18 393.03 210.18 393.03 186.87 377.69 186.87 377.69 186.87 365.4 186.87 365.4 214.49 393.03 214.49 393.03 210.18"/>
          <polygon class="cls-1" points="344.54 214.49 344.54 191.18 359.88 191.18 359.88 186.87 332.25 186.87 332.25 214.49 344.54 214.49"/>
        </g>
        <g>
          <polygon class="cls-1" points="376.45 173.44 376.45 145.81 348.83 145.81 348.83 150.12 364.17 150.12 364.17 173.44 376.45 173.44"/>
          <polygon class="cls-1" points="332.25 158.72 332.26 158.72 332.26 182.03 347.6 182.03 347.6 182.04 359.88 182.04 359.88 154.41 332.25 154.41 332.25 158.72"/>
          <polygon class="cls-1" points="380.74 154.41 380.74 177.73 365.4 177.73 365.4 182.04 393.03 182.04 393.03 154.41 380.74 154.41"/>
        </g>
      </g>
      <g>
        <g>
          <polygon class="cls-1" points="441.34 173.44 441.34 145.81 413.71 145.81 413.71 150.12 429.05 150.12 429.05 173.44 441.34 173.44"/>
          <polygon class="cls-1" points="397.14 158.72 397.14 158.72 397.14 182.03 412.48 182.03 412.48 182.04 424.76 182.04 424.76 154.41 397.14 154.41 397.14 158.72"/>
          <polygon class="cls-1" points="445.63 154.41 445.63 177.73 430.28 177.73 430.28 182.04 457.91 182.04 457.91 154.41 445.63 154.41"/>
        </g>
        <g>
          <polygon class="cls-1" points="413.71 195.47 413.71 223.09 441.34 223.09 441.34 218.78 426 218.78 426 195.47 413.71 195.47"/>
          <polygon class="cls-1" points="457.91 210.18 457.91 210.18 457.91 186.87 442.57 186.87 442.57 186.87 430.28 186.87 430.28 214.49 457.91 214.49 457.91 210.18"/>
          <polygon class="cls-1" points="409.42 214.49 409.42 191.18 424.76 191.18 424.76 186.87 397.14 186.87 397.14 214.49 409.42 214.49"/>
        </g>
        <g>
          <g>
            <polygon class="cls-1" points="508.18 173.44 508.18 145.81 480.56 145.81 480.56 150.12 495.89 150.12 495.89 173.44 508.18 173.44"/>
            <polygon class="cls-1" points="463.98 158.72 463.98 158.72 463.98 182.03 479.32 182.03 479.32 182.04 491.61 182.04 491.61 154.41 463.98 154.41 463.98 158.72"/>
            <polygon class="cls-1" points="512.47 154.41 512.47 177.73 497.13 177.73 497.13 182.04 524.76 182.04 524.76 154.41 512.47 154.41"/>
          </g>
          <g>
            <polygon class="cls-1" points="480.56 195.47 480.56 223.09 508.18 223.09 508.18 218.78 492.84 218.78 492.84 195.47 480.56 195.47"/>
            <polygon class="cls-1" points="524.76 210.18 524.75 210.18 524.75 186.87 509.41 186.87 509.41 186.87 497.13 186.87 497.13 214.49 524.76 214.49 524.76 210.18"/>
            <polygon class="cls-1" points="476.27 214.49 476.27 191.18 491.61 191.18 491.61 186.87 463.98 186.87 463.98 214.49 476.27 214.49"/>
          </g>
        </g>
        <g>
          <polygon class="cls-1" points="474.49 246.32 474.49 218.7 446.86 218.7 446.86 223.01 462.2 223.01 462.2 246.32 474.49 246.32"/>
          <polygon class="cls-1" points="430.28 231.61 430.29 231.61 430.29 254.92 445.63 254.92 445.63 254.92 457.91 254.92 457.91 227.3 430.28 227.3 430.28 231.61"/>
          <polygon class="cls-1" points="478.78 227.3 478.78 250.61 463.43 250.61 463.43 254.92 491.06 254.92 491.06 227.3 478.78 227.3"/>
        </g>
        <g>
          <polygon class="cls-1" points="446.86 268.35 446.86 295.98 474.49 295.98 474.49 291.67 459.15 291.67 459.15 268.35 446.86 268.35"/>
          <polygon class="cls-1" points="491.06 283.07 491.06 283.07 491.06 259.76 475.72 259.76 475.72 259.75 463.43 259.75 463.43 287.38 491.06 287.38 491.06 283.07"/>
          <polygon class="cls-1" points="442.57 287.38 442.57 264.06 457.91 264.06 457.91 259.75 430.28 259.75 430.28 287.38 442.57 287.38"/>
        </g>
        <g>
          <polygon class="cls-1" points="580.55 268.35 580.55 295.98 608.17 295.98 608.17 291.67 592.83 291.67 592.83 268.35 580.55 268.35"/>
          <polygon class="cls-1" points="624.75 283.07 624.75 283.07 624.75 259.76 609.41 259.76 609.41 259.75 597.12 259.75 597.12 287.38 624.75 287.38 624.75 283.07"/>
          <polygon class="cls-1" points="576.26 287.38 576.26 264.06 591.6 264.06 591.6 259.75 563.97 259.75 563.97 287.38 576.26 287.38"/>
        </g>
        <g>
          <polygon class="cls-1" points="608.17 246.32 608.17 218.7 580.55 218.7 580.55 223.01 595.88 223.01 595.88 246.32 608.17 246.32"/>
          <polygon class="cls-1" points="563.97 231.61 563.97 231.61 563.97 254.92 579.31 254.92 579.31 254.92 591.6 254.92 591.6 227.3 563.97 227.3 563.97 231.61"/>
          <polygon class="cls-1" points="612.46 227.3 612.46 250.61 597.12 250.61 597.12 254.92 624.75 254.92 624.75 227.3 612.46 227.3"/>
        </g>
        <g>
          <g>
            <polygon class="cls-1" points="513.7 268.35 513.7 295.98 541.33 295.98 541.33 291.67 525.99 291.67 525.99 268.35 513.7 268.35"/>
            <polygon class="cls-1" points="557.9 283.07 557.9 283.07 557.9 259.76 542.56 259.76 542.56 259.75 530.28 259.75 530.28 287.38 557.9 287.38 557.9 283.07"/>
            <polygon class="cls-1" points="509.41 287.38 509.41 264.06 524.76 264.06 524.76 259.75 497.13 259.75 497.13 287.38 509.41 287.38"/>
          </g>
          <g>
            <polygon class="cls-1" points="541.33 246.32 541.33 218.7 513.7 218.7 513.7 223.01 529.04 223.01 529.04 246.32 541.33 246.32"/>
            <polygon class="cls-1" points="497.13 231.61 497.13 231.61 497.13 254.92 512.47 254.92 512.47 254.92 524.76 254.92 524.76 227.3 497.13 227.3 497.13 231.61"/>
            <polygon class="cls-1" points="545.62 227.3 545.62 250.61 530.28 250.61 530.28 254.92 557.9 254.92 557.9 227.3 545.62 227.3"/>
          </g>
        </g>
        <g>
          <polygon class="cls-1" points="547.4 195.47 547.4 223.09 575.02 223.09 575.02 218.78 559.68 218.78 559.68 195.47 547.4 195.47"/>
          <polygon class="cls-1" points="591.6 210.18 591.6 210.18 591.6 186.87 576.26 186.87 576.26 186.87 563.97 186.87 563.97 214.49 591.6 214.49 591.6 210.18"/>
          <polygon class="cls-1" points="543.11 214.49 543.11 191.18 558.45 191.18 558.45 186.87 530.82 186.87 530.82 214.49 543.11 214.49"/>
        </g>
        <g>
          <polygon class="cls-1" points="575.02 173.44 575.02 145.81 547.4 145.81 547.4 150.12 562.74 150.12 562.74 173.44 575.02 173.44"/>
          <polygon class="cls-1" points="530.82 158.72 530.82 158.72 530.82 182.03 546.16 182.03 546.16 182.04 558.45 182.04 558.45 154.41 530.82 154.41 530.82 158.72"/>
          <polygon class="cls-1" points="579.31 154.41 579.31 177.73 563.97 177.73 563.97 182.04 591.6 182.04 591.6 154.41 579.31 154.41"/>
        </g>
      </g>
      <g>
        <g>
          <polygon class="cls-1" points="639.9 173.44 639.9 145.81 612.28 145.81 612.28 150.12 627.62 150.12 627.62 173.44 639.9 173.44"/>
          <polygon class="cls-1" points="595.7 158.72 595.71 158.72 595.71 182.03 611.05 182.03 611.05 182.04 623.33 182.04 623.33 154.41 595.7 154.41 595.7 158.72"/>
          <polygon class="cls-1" points="644.19 154.41 644.19 177.73 628.85 177.73 628.85 182.04 656.48 182.04 656.48 154.41 644.19 154.41"/>
        </g>
        <g>
          <polygon class="cls-1" points="612.28 195.47 612.28 223.09 639.9 223.09 639.9 218.78 624.57 218.78 624.57 195.47 612.28 195.47"/>
          <polygon class="cls-1" points="656.48 210.18 656.48 210.18 656.48 186.87 641.14 186.87 641.14 186.87 628.85 186.87 628.85 214.49 656.48 214.49 656.48 210.18"/>
          <polygon class="cls-1" points="607.99 214.49 607.99 191.18 623.33 191.18 623.33 186.87 595.7 186.87 595.7 214.49 607.99 214.49"/>
        </g>
        <g>
          <g>
            <polygon class="cls-1" points="706.75 173.44 706.75 145.81 679.12 145.81 679.12 150.12 694.46 150.12 694.46 173.44 706.75 173.44"/>
            <polygon class="cls-1" points="662.55 158.72 662.55 158.72 662.55 182.03 677.89 182.03 677.89 182.04 690.18 182.04 690.18 154.41 662.55 154.41 662.55 158.72"/>
            <polygon class="cls-1" points="711.04 154.41 711.04 177.73 695.7 177.73 695.7 182.04 723.32 182.04 723.32 154.41 711.04 154.41"/>
          </g>
          <g>
            <polygon class="cls-1" points="679.12 195.47 679.12 223.09 706.75 223.09 706.75 218.78 691.41 218.78 691.41 195.47 679.12 195.47"/>
            <polygon class="cls-1" points="723.32 210.18 723.32 210.18 723.32 186.87 707.98 186.87 707.98 186.87 695.7 186.87 695.7 214.49 723.32 214.49 723.32 210.18"/>
            <polygon class="cls-1" points="674.83 214.49 674.83 191.18 690.18 191.18 690.18 186.87 662.55 186.87 662.55 214.49 674.83 214.49"/>
          </g>
        </g>
        <g>
          <polygon class="cls-1" points="673.05 246.32 673.05 218.7 645.43 218.7 645.43 223.01 660.77 223.01 660.77 246.32 673.05 246.32"/>
          <polygon class="cls-1" points="628.85 231.61 628.85 231.61 628.85 254.92 644.19 254.92 644.19 254.92 656.48 254.92 656.48 227.3 628.85 227.3 628.85 231.61"/>
          <polygon class="cls-1" points="677.34 227.3 677.34 250.61 662 250.61 662 254.92 689.63 254.92 689.63 227.3 677.34 227.3"/>
        </g>
        <g>
          <polygon class="cls-1" points="645.43 268.35 645.43 295.98 673.05 295.98 673.05 291.67 657.72 291.67 657.72 268.35 645.43 268.35"/>
          <polygon class="cls-1" points="689.63 283.07 689.63 283.07 689.63 259.76 674.29 259.76 674.29 259.75 662 259.75 662 287.38 689.63 287.38 689.63 283.07"/>
          <polygon class="cls-1" points="641.14 287.38 641.14 264.06 656.48 264.06 656.48 259.75 628.85 259.75 628.85 287.38 641.14 287.38"/>
        </g>
        <g>
          <polygon class="cls-1" points="779.11 268.35 779.11 295.98 806.74 295.98 806.74 291.67 791.4 291.67 791.4 268.35 779.11 268.35"/>
          <polygon class="cls-1" points="823.32 283.07 823.31 283.07 823.31 259.76 807.97 259.76 807.97 259.75 795.69 259.75 795.69 287.38 823.32 287.38 823.32 283.07"/>
          <polygon class="cls-1" points="774.82 287.38 774.82 264.06 790.17 264.06 790.17 259.75 762.54 259.75 762.54 287.38 774.82 287.38"/>
        </g>
        <g>
          <polygon class="cls-1" points="806.74 246.32 806.74 218.7 779.11 218.7 779.11 223.01 794.45 223.01 794.45 246.32 806.74 246.32"/>
          <polygon class="cls-1" points="762.54 231.61 762.54 231.61 762.54 254.92 777.88 254.92 777.88 254.92 790.17 254.92 790.17 227.3 762.54 227.3 762.54 231.61"/>
          <polygon class="cls-1" points="811.03 227.3 811.03 250.61 795.69 250.61 795.69 254.92 823.32 254.92 823.32 227.3 811.03 227.3"/>
        </g>
        <g>
          <g>
            <polygon class="cls-1" points="712.27 268.35 712.27 295.98 739.9 295.98 739.9 291.67 724.56 291.67 724.56 268.35 712.27 268.35"/>
            <polygon class="cls-1" points="756.47 283.07 756.47 283.07 756.47 259.76 741.13 259.76 741.13 259.75 728.84 259.75 728.84 287.38 756.47 287.38 756.47 283.07"/>
            <polygon class="cls-1" points="707.98 287.38 707.98 264.06 723.32 264.06 723.32 259.75 695.7 259.75 695.7 287.38 707.98 287.38"/>
          </g>
          <g>
            <polygon class="cls-1" points="739.9 246.32 739.9 218.7 712.27 218.7 712.27 223.01 727.61 223.01 727.61 246.32 739.9 246.32"/>
            <polygon class="cls-1" points="695.7 231.61 695.7 231.61 695.7 254.92 711.04 254.92 711.04 254.92 723.32 254.92 723.32 227.3 695.7 227.3 695.7 231.61"/>
            <polygon class="cls-1" points="744.19 227.3 744.19 250.61 728.84 250.61 728.84 254.92 756.47 254.92 756.47 227.3 744.19 227.3"/>
          </g>
        </g>
        <g>
          <polygon class="cls-1" points="745.97 195.47 745.97 223.09 773.59 223.09 773.59 218.78 758.25 218.78 758.25 195.47 745.97 195.47"/>
          <polygon class="cls-1" points="790.17 210.18 790.16 210.18 790.16 186.87 774.82 186.87 774.82 186.87 762.54 186.87 762.54 214.49 790.17 214.49 790.17 210.18"/>
          <polygon class="cls-1" points="741.68 214.49 741.68 191.18 757.02 191.18 757.02 186.87 729.39 186.87 729.39 214.49 741.68 214.49"/>
        </g>
        <g>
          <polygon class="cls-1" points="773.59 173.44 773.59 145.81 745.97 145.81 745.97 150.12 761.3 150.12 761.3 173.44 773.59 173.44"/>
          <polygon class="cls-1" points="729.39 158.72 729.39 158.72 729.39 182.03 744.73 182.03 744.73 182.04 757.02 182.04 757.02 154.41 729.39 154.41 729.39 158.72"/>
          <polygon class="cls-1" points="777.88 154.41 777.88 177.73 762.54 177.73 762.54 182.04 790.17 182.04 790.17 154.41 777.88 154.41"/>
        </g>
      </g>
    </g>
  </g>
</svg>