<?xml version="1.0" encoding="UTF-8"?>
<svg id="Layer_2" data-name="Layer 2" xmlns="http://www.w3.org/2000/svg" viewBox="0 0 169.39 139.02">
  <defs>
    <style>
      .cls-1 {
        font-family: GeistMono-Regular, 'Geist Mono';
        font-size: 7.05px;
        font-variation-settings: 'wght' 400;
      }
    </style>
  </defs>
  <g id="Layer_1-2" data-name="Layer 1">
    <g>
      <g>
        <g>
          <g>
            <polygon points="18.28 0 18.28 4.75 35.2 4.75 35.2 30.47 48.76 30.47 48.76 0 18.28 0"/>
            <polygon points="0 9.48 0 14.24 16.92 14.24 16.92 39.96 30.48 39.96 30.48 9.48 0 9.48"/>
            <rect x="0" y="9.48" width="30.47" height="30.47"/>
          </g>
          <polygon points="36.56 39.96 36.56 35.2 53.49 35.2 53.49 9.48 67.04 9.48 67.04 39.96 36.56 39.96"/>
        </g>
        <g>
          <path d="M0,138.36v-4.09h26.56v4.09H0ZM11.79,136.7v-29.77c0-1.18-.33-2.1-1-2.77s-1.59-1-2.77-1H1.11v-4.1h7.14c2.69,0,4.73.69,6.11,2.08,1.38,1.38,2.08,3.42,2.08,6.11v29.44h-4.65Z"/>
          <path d="M38.18,139.02c-1.85,0-3.51-.33-4.98-1-1.48-.66-2.64-1.6-3.49-2.79-.85-1.2-1.27-2.59-1.27-4.18,0-2.51.75-4.45,2.24-5.84,1.49-1.38,3.85-2.39,7.06-3.02l9.85-1.99c0-2.51-.56-4.37-1.69-5.59-1.13-1.22-2.74-1.83-4.84-1.83s-3.62.45-4.76,1.36c-1.14.9-1.94,2.2-2.38,3.9l-4.93-.39c.55-2.77,1.87-5.01,3.96-6.72,2.08-1.72,4.79-2.57,8.11-2.57,3.54,0,6.29,1.06,8.25,3.18,1.96,2.12,2.93,5.05,2.93,8.77v12.17c0,.66.15,1.13.44,1.38.29.26.74.39,1.33.39h1.88v4.09c-.22.04-.57.06-1.05.08-.48.02-.94.03-1.38.03-1.25,0-2.32-.2-3.18-.61-.87-.41-1.52-1.06-1.96-1.96-.44-.9-.68-2.08-.72-3.51h.89c-.26,1.25-.88,2.39-1.85,3.4-.98,1.02-2.2,1.81-3.68,2.38-1.48.57-3.06.86-4.76.86ZM38.63,134.93c1.99,0,3.65-.34,4.98-1.02,1.33-.68,2.32-1.64,2.99-2.88.66-1.24,1-2.66,1-4.29v-2.55l-8.96,1.77c-1.99.37-3.38.93-4.15,1.69-.77.76-1.16,1.74-1.16,2.96,0,1.37.47,2.43,1.41,3.18.94.76,2.24,1.13,3.9,1.13Z"/>
          <path d="M72.66,139.02c-1.55,0-2.97-.26-4.26-.77-1.29-.52-2.4-1.26-3.32-2.24-.92-.98-1.62-2.13-2.1-3.46l.72-.83-.28,6.64h-4.21v-39.29h4.65v16.27l-.5-1.16c.33-.92.93-1.83,1.8-2.71.87-.89,1.95-1.62,3.24-2.21,1.29-.59,2.71-.89,4.26-.89,2.58,0,4.81.63,6.7,1.88,1.88,1.25,3.33,3.03,4.34,5.31,1.01,2.29,1.52,5,1.52,8.14s-.51,5.85-1.52,8.13c-1.02,2.29-2.46,4.06-4.34,5.31-1.88,1.25-4.11,1.88-6.7,1.88ZM72.38,134.59c2.47,0,4.42-.98,5.84-2.93,1.42-1.96,2.13-4.61,2.13-7.97s-.71-6.06-2.13-8c-1.42-1.94-3.33-2.9-5.73-2.9-1.81,0-3.36.43-4.65,1.3-1.29.87-2.28,2.11-2.96,3.74-.68,1.62-1.02,3.58-1.02,5.87s.34,4.14,1.02,5.78c.68,1.64,1.66,2.91,2.93,3.79,1.27.89,2.79,1.33,4.57,1.33Z"/>
        </g>
        <g>
          <path d="M0,92.31l11.37-39.95h8.67l11.37,39.95h-7.15l-8.55-32.08-8.55,32.08H0ZM6.98,82.86l1.91-6.25h13.62l1.91,6.25H6.98Z"/>
          <path d="M36.86,92.31v-6.42h9.12v-27.12h-9.12v-6.42h25.21v6.42h-9.12v27.12h9.12v6.42h-25.21Z"/>
          <path d="M104.95,92.31v-39.95h24.76v6.42h-17.78v10.41h17.11v6.19h-17.11v10.52h18.23v6.42h-25.21Z"/>
          <path d="M137.59,92.31v-39.95h7.48l13.28,31.34-1.18.28v-31.63h6.75v39.95h-7.48l-13.28-31.34,1.18-.28v31.63h-6.75Z"/>
          <path d="M86.81,52.61c-.91-.16-1.85-.25-2.8-.25h-13.29v39.95h13.29c.96,0,1.89-.09,2.8-.25,7.37-1.32,12.96-7.77,12.96-15.52v-8.42c0-7.75-5.59-14.2-12.96-15.52ZM93.26,76.88c0,4.98-4.04,9.01-9.01,9.01h-6.55v-27.12h6.55c4.98,0,9.01,4.04,9.01,9.01v9.1Z"/>
        </g>
      </g>
      <text class="cls-1" transform="translate(93.26 127.79)"><tspan x="0" y="0">AI-Driven Elastic </tspan><tspan x="0" y="8.46">Network Laboratory</tspan></text>
    </g>
  </g>
</svg>