<?xml version="1.0" encoding="UTF-8"?>
<svg id="Layer_2" data-name="Layer 2" xmlns="http://www.w3.org/2000/svg" viewBox="0 0 354.23 63.57">
  <defs>
    <style>
      .cls-1 {
        letter-spacing: .02em;
      }

      .cls-2 {
        letter-spacing: .02em;
      }

      .cls-3, .cls-4 {
        fill: #020725;
      }

      .cls-5 {
        letter-spacing: .02em;
      }

      .cls-6 {
        letter-spacing: .02em;
      }

      .cls-7 {
        letter-spacing: .03em;
      }

      .cls-8 {
        letter-spacing: 0em;
      }

      .cls-9 {
        letter-spacing: .04em;
      }

      .cls-10 {
        letter-spacing: .04em;
      }

      .cls-11 {
        letter-spacing: .02em;
      }

      .cls-12 {
        letter-spacing: .03em;
      }

      .cls-13 {
        letter-spacing: 0em;
      }

      .cls-14 {
        letter-spacing: 0em;
      }

      .cls-15 {
        letter-spacing: .04em;
      }

      .cls-16 {
        letter-spacing: .04em;
      }

      .cls-17 {
        letter-spacing: 0em;
      }

      .cls-18 {
        letter-spacing: 0em;
      }

      .cls-19 {
        letter-spacing: .02em;
      }

      .cls-20 {
        letter-spacing: .05em;
      }

      .cls-4 {
        font-family: GeistMono-Regular, 'Geist Mono';
        font-size: 12.51px;
        font-variation-settings: 'wght' 400;
      }

      .cls-21 {
        letter-spacing: .03em;
      }

      .cls-22 {
        letter-spacing: .02em;
      }

      .cls-23 {
        letter-spacing: -.09em;
      }

      .cls-24 {
        letter-spacing: .02em;
      }

      .cls-25 {
        letter-spacing: .05em;
      }

      .cls-26 {
        letter-spacing: .04em;
      }

      .cls-27 {
        letter-spacing: .04em;
      }

      .cls-28 {
        letter-spacing: -.03em;
      }

      .cls-29 {
        letter-spacing: 0em;
      }

      .cls-30 {
        letter-spacing: .02em;
      }

      .cls-31 {
        letter-spacing: .02em;
      }
    </style>
  </defs>
  <g id="Layer_1-2" data-name="Layer 1">
    <g>
      <g>
        <g>
          <g>
            <polygon class="cls-3" points="17.91 0 17.91 4.66 34.48 4.66 34.48 29.84 47.75 29.84 47.75 0 17.91 0"/>
            <polygon class="cls-3" points="0 9.29 0 13.94 16.57 13.94 16.57 39.13 29.85 39.13 29.85 9.29 0 9.29"/>
            <rect class="cls-3" x="0" y="9.29" width="29.84" height="29.84"/>
          </g>
          <polygon class="cls-3" points="35.81 39.13 35.81 34.48 52.39 34.48 52.39 9.29 65.66 9.29 65.66 39.13 35.81 39.13"/>
        </g>
        <g>
          <path class="cls-3" d="M75.05,39.13L86.19,0h8.49l11.13,39.13h-7l-8.38-31.42-8.38,31.42h-7ZM81.89,29.87l1.87-6.12h13.34l1.87,6.12h-17.09Z"/>
          <path class="cls-3" d="M111.15,39.13v-6.28h8.93V6.28h-8.93V0h24.69v6.28h-8.93v26.57h8.93v6.28h-24.69Z"/>
          <path class="cls-3" d="M177.84,39.13V0h24.25v6.28h-17.42v10.2h16.75v6.06h-16.75v10.31h17.86v6.28h-24.69Z"/>
          <path class="cls-3" d="M209.81,39.13V0h7.33l13.01,30.7-1.16.28V0h6.61v39.13h-7.33l-13.01-30.7,1.16-.28v30.97h-6.61Z"/>
          <path class="cls-3" d="M160.08.25c-.89-.16-1.81-.25-2.75-.25h-13.02v39.13h13.02c.94,0,1.85-.09,2.75-.25,7.22-1.29,12.7-7.61,12.7-15.2v-8.25c0-7.59-5.48-13.9-12.7-15.2ZM166.39,24.02c0,4.88-3.95,8.83-8.83,8.83h-6.41V6.28h6.41c4.88,0,8.83,3.95,8.83,8.83v8.91Z"/>
        </g>
        <g>
          <path class="cls-3" d="M243.63,24.82v-4.28h19.51v4.28h-19.51Z"/>
          <path class="cls-3" d="M268.56,38.48v-4.01h26.02v4.01h-26.02ZM280.1,36.86V7.7c0-1.16-.33-2.06-.98-2.71-.65-.65-1.55-.98-2.71-.98h-6.77V0h6.99c2.64,0,4.63.68,5.99,2.03,1.36,1.35,2.03,3.35,2.03,5.99v28.83h-4.55Z"/>
          <path class="cls-3" d="M305.95,39.13c-1.81,0-3.43-.33-4.88-.98-1.45-.65-2.58-1.56-3.41-2.74-.83-1.17-1.25-2.54-1.25-4.09,0-2.46.73-4.36,2.19-5.72,1.46-1.35,3.77-2.34,6.91-2.95l9.65-1.95c0-2.46-.55-4.28-1.65-5.47-1.1-1.19-2.68-1.79-4.74-1.79s-3.54.44-4.66,1.33c-1.12.89-1.9,2.16-2.33,3.82l-4.82-.38c.54-2.71,1.83-4.91,3.88-6.58,2.04-1.68,4.69-2.52,7.94-2.52,3.47,0,6.16,1.04,8.08,3.12,1.91,2.08,2.87,4.94,2.87,8.59v11.92c0,.65.14,1.1.43,1.36.29.25.72.38,1.3.38h1.84v4.01c-.22.04-.56.06-1.03.08-.47.02-.92.03-1.36.03-1.23,0-2.27-.2-3.12-.6-.85-.4-1.49-1.04-1.92-1.92-.43-.88-.67-2.03-.7-3.44h.87c-.25,1.23-.86,2.34-1.82,3.33-.96.99-2.16,1.77-3.6,2.33-1.45.56-3,.84-4.66.84ZM306.39,35.12c1.95,0,3.58-.33,4.88-1,1.3-.67,2.28-1.61,2.93-2.82.65-1.21.98-2.61.98-4.2v-2.49l-8.78,1.73c-1.95.36-3.31.91-4.07,1.65-.76.74-1.14,1.71-1.14,2.9,0,1.34.46,2.38,1.38,3.12.92.74,2.2,1.11,3.82,1.11Z"/>
          <path class="cls-3" d="M339.72,39.13c-1.52,0-2.91-.25-4.17-.76-1.27-.51-2.35-1.24-3.25-2.19-.9-.96-1.59-2.09-2.06-3.39l.7-.81-.27,6.5h-4.12V0h4.55v15.93l-.49-1.14c.33-.9.91-1.79,1.76-2.66.85-.87,1.91-1.59,3.17-2.17,1.26-.58,2.66-.87,4.17-.87,2.53,0,4.72.61,6.56,1.84,1.84,1.23,3.26,2.96,4.25,5.2.99,2.24,1.49,4.9,1.49,7.97s-.5,5.73-1.49,7.97c-.99,2.24-2.41,3.98-4.25,5.2-1.84,1.23-4.03,1.84-6.56,1.84ZM339.45,34.8c2.42,0,4.33-.96,5.72-2.87,1.39-1.91,2.09-4.52,2.09-7.8s-.7-5.93-2.09-7.83c-1.39-1.9-3.26-2.85-5.61-2.85-1.77,0-3.29.43-4.55,1.27-1.27.85-2.23,2.07-2.9,3.66-.67,1.59-1,3.51-1,5.75s.33,4.06,1,5.66c.67,1.61,1.63,2.85,2.87,3.71s2.74,1.3,4.47,1.3Z"/>
        </g>
      </g>
      <text class="cls-4" transform="translate(75.05 58.64)"><tspan class="cls-6" x="0" y="0">A</tspan><tspan class="cls-23" x="7.81" y="0">I</tspan><tspan class="cls-29" x="14.18" y="0">-</tspan><tspan class="cls-2" x="21.6" y="0">D</tspan><tspan class="cls-19" x="29.37" y="0">r</tspan><tspan class="cls-28" x="37.15" y="0">i</tspan><tspan class="cls-14" x="44.3" y="0">v</tspan><tspan class="cls-16" x="51.91" y="0">e</tspan><tspan class="cls-26" x="59.88" y="0">n </tspan><tspan class="cls-31" x="75.9" y="0">E</tspan><tspan class="cls-27" x="83.69" y="0">l</tspan><tspan class="cls-30" x="91.67" y="0">a</tspan><tspan class="cls-5" x="99.44" y="0">s</tspan><tspan class="cls-24" x="107.14" y="0">t</tspan><tspan class="cls-1" x="114.87" y="0">i</tspan><tspan class="cls-15" x="122.63" y="0">c </tspan><tspan class="cls-12" x="138.65" y="0">N</tspan><tspan class="cls-11" x="146.58" y="0">e</tspan><tspan class="cls-25" x="154.33" y="0">t</tspan><tspan class="cls-9" x="162.44" y="0">w</tspan><tspan class="cls-8" x="170.5" y="0">o</tspan><tspan class="cls-19" x="178.01" y="0">r</tspan><tspan class="cls-15" x="185.8" y="0">k </tspan><tspan class="cls-7" x="201.82" y="0">L</tspan><tspan class="cls-21" x="209.69" y="0">a</tspan><tspan class="cls-20" x="217.54" y="0">b</tspan><tspan class="cls-18" x="225.68" y="0">o</tspan><tspan class="cls-22" x="233.19" y="0">r</tspan><tspan class="cls-17" x="240.99" y="0">a</tspan><tspan class="cls-13" x="248.54" y="0">t</tspan><tspan class="cls-18" x="256.13" y="0">o</tspan><tspan class="cls-10" x="263.65" y="0">r</tspan><tspan class="cls-15" x="271.67" y="0">y</tspan></text>
    </g>
  </g>
</svg>